<svg width="547" height="181" viewBox="0 0 547 181" fill="none" xmlns="http://www.w3.org/2000/svg">
<g opacity="0.3" filter="url(#filter0_f_1_179)">
<path d="M20.2928 45.3799H54.0166C61.9039 45.3799 68.1696 47.2965 72.8135 51.1296C77.5312 54.9626 79.89 59.8277 79.89 65.7248C79.89 74.4967 74.7669 80.4306 64.5208 83.5266C69.7544 84.2637 73.9192 86.4382 77.0152 90.0502C80.1111 93.6622 81.6591 97.9007 81.6591 102.766C81.6591 108.958 79.374 113.896 74.8038 117.582C70.3072 121.194 64.0048 123 55.8963 123H20.2928V45.3799ZM39.2002 59.754V76.5607H51.5841C54.3115 76.5607 56.486 75.8604 58.1077 74.4598C59.8031 73.0593 60.6508 70.9953 60.6508 68.2679C60.6508 65.4668 59.8031 63.366 58.1077 61.9654C56.486 60.4912 54.3115 59.754 51.5841 59.754H39.2002ZM39.2002 108.626H53.4638C56.0437 108.626 58.1814 107.852 59.8768 106.304C61.5722 104.756 62.4199 102.618 62.4199 99.8909C62.4199 97.1635 61.6091 94.989 59.9874 93.3673C58.3657 91.7456 56.2649 90.9348 53.6849 90.9348H39.2002V108.626ZM94.7979 45.3799H113.705V108.626H137.257V123H94.7979V45.3799ZM197.796 100.223C201.555 96.1684 203.435 90.7505 203.435 83.9688C203.435 77.1872 201.555 71.7693 197.796 67.7151C194.11 63.6608 189.134 61.6337 182.869 61.6337C176.677 61.6337 171.701 63.6608 167.942 67.7151C164.256 71.7693 162.413 77.1872 162.413 83.9688C162.413 90.7505 164.256 96.1684 167.942 100.223C171.701 104.277 176.677 106.304 182.869 106.304C189.134 106.304 194.11 104.277 197.796 100.223ZM154.673 112.496C147.007 104.977 143.174 95.4681 143.174 83.9688C143.174 72.4696 147.007 62.9974 154.673 55.5524C162.413 48.0336 171.849 44.2742 182.979 44.2742C194.184 44.2742 203.582 48.0336 211.175 55.5524C218.841 62.9974 222.674 72.4696 222.674 83.9688C222.674 95.4681 218.841 104.977 211.175 112.496C203.508 120.015 194.11 123.774 182.979 123.774C171.849 123.774 162.413 120.015 154.673 112.496ZM302.515 45.3799L277.968 84.3006L302.404 123H280.954L266.69 100.444L253.532 123H232.082L256.518 84.19L232.082 45.3799H253.532L267.796 68.0468L281.064 45.3799H302.515Z" fill="white"/>
<path d="M375.448 69.1525C375.448 74.3861 373.568 79.4355 369.809 84.3006C367.818 86.8068 364.833 88.8708 360.852 90.4925C356.946 92.0405 352.302 92.8145 346.921 92.8145H335.2V123H316.293V45.3799H346.921C355.914 45.3799 362.916 47.7019 367.929 52.3458C372.941 56.9898 375.448 62.592 375.448 69.1525ZM335.2 78.4403H346.921C349.795 78.4403 352.044 77.5926 353.665 75.8972C355.361 74.2018 356.209 71.9904 356.209 69.263C356.209 66.4619 355.361 64.1768 353.665 62.4077C351.97 60.6386 349.722 59.754 346.921 59.754H335.2V78.4403ZM406.816 123L379.284 45.3799H399.408L418.647 104.535L437.886 45.3799H458.01L430.478 123H406.816ZM526.186 69.1525C526.186 74.3861 524.306 79.4355 520.547 84.3006C518.556 86.8068 515.571 88.8708 511.59 90.4925C507.684 92.0405 503.04 92.8145 497.659 92.8145H485.938V123H467.031V45.3799H497.659C506.652 45.3799 513.654 47.7019 518.667 52.3458C523.679 56.9898 526.186 62.592 526.186 69.1525ZM485.938 78.4403H497.659C500.533 78.4403 502.782 77.5926 504.403 75.8972C506.099 74.2018 506.947 71.9904 506.947 69.263C506.947 66.4619 506.099 64.1768 504.403 62.4077C502.708 60.6386 500.46 59.754 497.659 59.754H485.938V78.4403Z" fill="#6100FF"/>
</g>
<path d="M20.2926 45.3811H54.0159C61.9031 45.3811 68.1686 47.2977 72.8125 51.1307C77.5301 54.9637 79.8889 59.8287 79.8889 65.7257C79.8889 74.4974 74.7659 80.4312 64.5199 83.5272C69.7534 84.2643 73.9182 86.4388 77.0141 90.0507C80.11 93.6626 81.658 97.901 81.658 102.766C81.658 108.958 79.3729 113.897 74.8027 117.582C70.3063 121.194 64.0039 123 55.8956 123H20.2926V45.3811ZM39.1998 59.755V76.5614H51.5834C54.3108 76.5614 56.4853 75.8611 58.1069 74.4606C59.8023 73.06 60.65 70.9961 60.65 68.2687C60.65 65.4677 59.8023 63.3669 58.1069 61.9664C56.4853 60.4921 54.3108 59.755 51.5834 59.755H39.1998ZM39.1998 108.626H53.4631C56.043 108.626 58.1806 107.852 59.876 106.304C61.5714 104.756 62.4191 102.619 62.4191 99.8913C62.4191 97.1639 61.6083 94.9894 59.9866 93.3677C58.3649 91.7461 56.2641 90.9352 53.6842 90.9352H39.1998V108.626ZM94.7966 45.3811H113.704V108.626H137.255V123H94.7966V45.3811ZM197.793 100.223C201.552 96.1688 203.432 90.7509 203.432 83.9694C203.432 77.1879 201.552 71.7701 197.793 67.7159C194.107 63.6617 189.131 61.6347 182.866 61.6347C176.674 61.6347 171.698 63.6617 167.939 67.7159C164.254 71.7701 162.411 77.1879 162.411 83.9694C162.411 90.7509 164.254 96.1688 167.939 100.223C171.698 104.277 176.674 106.304 182.866 106.304C189.131 106.304 194.107 104.277 197.793 100.223ZM154.671 112.496C147.005 104.977 143.172 95.4685 143.172 83.9694C143.172 72.4703 147.005 62.9983 154.671 55.5534C162.411 48.0348 171.846 44.2755 182.976 44.2755C194.181 44.2755 203.579 48.0348 211.171 55.5534C218.837 62.9983 222.67 72.4703 222.67 83.9694C222.67 95.4685 218.837 104.977 211.171 112.496C203.505 120.015 194.107 123.774 182.976 123.774C171.846 123.774 162.411 120.015 154.671 112.496ZM302.51 45.3811L277.964 84.3011L302.4 123H280.949L266.686 100.444L253.528 123H232.078L256.514 84.1906L232.078 45.3811H253.528L267.792 68.0476L281.06 45.3811H302.51Z" fill="white"/>
<path d="M375.447 69.1535C375.447 74.3871 373.567 79.4364 369.808 84.3014C367.817 86.8076 364.832 88.8715 360.852 90.4932C356.945 92.0412 352.301 92.8151 346.92 92.8151H335.2V123H316.293V45.3814H346.92C355.913 45.3814 362.916 47.7033 367.928 52.3472C372.94 56.991 375.447 62.5932 375.447 69.1535ZM335.2 78.4413H346.92C349.795 78.4413 352.043 77.5936 353.665 75.8982C355.36 74.2028 356.208 71.9915 356.208 69.2641C356.208 66.463 355.36 64.178 353.665 62.4089C351.969 60.6398 349.721 59.7552 346.92 59.7552H335.2V78.4413ZM406.814 123L379.283 45.3814H399.406L418.645 104.535L437.884 45.3814H458.007L430.476 123H406.814ZM526.182 69.1535C526.182 74.3871 524.302 79.4364 520.543 84.3014C518.553 86.8076 515.568 88.8715 511.587 90.4932C507.68 92.0412 503.037 92.8151 497.656 92.8151H485.935V123H467.028V45.3814H497.656C506.648 45.3814 513.651 47.7033 518.663 52.3472C523.676 56.991 526.182 62.5932 526.182 69.1535ZM485.935 78.4413H497.656C500.53 78.4413 502.779 77.5936 504.4 75.8982C506.096 74.2028 506.943 71.9915 506.943 69.2641C506.943 66.463 506.096 64.178 504.4 62.4089C502.705 60.6398 500.457 59.7552 497.656 59.7552H485.935V78.4413Z" fill="#6100FF"/>
<defs>
<filter id="filter0_f_1_179" x="0.292725" y="24.2742" width="545.893" height="119.5" filterUnits="userSpaceOnUse" color-interpolation-filters="sRGB">
<feFlood flood-opacity="0" result="BackgroundImageFix"/>
<feBlend mode="normal" in="SourceGraphic" in2="BackgroundImageFix" result="shape"/>
<feGaussianBlur stdDeviation="10" result="effect1_foregroundBlur_1_179"/>
</filter>
</defs>
</svg>
