<svg width="78" height="78" viewBox="0 0 78 78" fill="none" xmlns="http://www.w3.org/2000/svg">
<path fill-rule="evenodd" clip-rule="evenodd" d="M68.0177 38.9447C68.0177 54.9514 55.0418 67.9273 39.0351 67.9273C23.0284 67.9273 10.0525 54.9514 10.0525 38.9447C10.0525 22.9381 23.0284 9.96213 39.0351 9.96213C55.0418 9.96213 68.0177 22.9381 68.0177 38.9447ZM21.5997 51.8259L23.8768 49.5488L34.4809 38.9447L23.8768 28.3407L21.5997 26.0636L26.1539 21.5094L28.431 23.7865L39.0351 34.3906L49.6392 23.7865L51.9162 21.5094L56.4704 26.0636L54.1933 28.3407L43.5893 38.9447L54.1933 49.5488L56.4704 51.8259L51.9162 56.3801L49.6392 54.103L39.0351 43.4989L28.431 54.103L26.1539 56.3801L21.5997 51.8259Z" fill="#9088EC"/>
</svg>
